<svg
    width="145"
    height="24"
    viewBox="0 0 145 24"
    xmlns="http://www.w3.org/2000/svg"
>
    <title>Ace &amp; Tate</title>
    <path
    d="M10.873 15.863c0 3.475-1.978 4.608-4.272 4.608-1.623 0-2.506-1.096-2.506-2.302 0-1.464 1.024-2.194 2.296-2.414l4.483-.694v.803zm4.023-4.313c0-3.547-2.012-6.655-7.307-6.655-4.236 0-6.92 2.742-7.236 5.813l3.74.878C4.27 9.794 5.47 8.37 7.624 8.37c2.26 0 3.25 1.204 3.25 2.705 0 .62-.285 1.133-1.272 1.28l-4.413.695C2.26 13.487 0 15.243 0 18.423c0 2.816 2.223 5.375 5.825 5.375 2.788 0 4.483-1.462 5.294-2.816 0 1.427.14 2.158.176 2.267h3.81c-.034-.184-.21-1.243-.21-2.853V11.55zm52.858-2.645c-.588-.753-.863-1.412-.868-2.075-.006-.703.234-1.298.692-1.723.403-.374.965-.59 1.54-.595 1.726 0 2.365 1.336 2.6 2.457l.03.15 2.873-2.412.02-.07c-.91-2.42-2.87-3.75-5.515-3.75-2.8.02-5.675 1.888-5.877 5.412-.006.08-.01.164-.01.248l-.004.08c-.003.035-.005.07-.005.11.038 1.79 1.058 3.433 1.693 4.29-2.212 1.79-3.58 3.495-3.582 6.417 0 1.677.67 3.318 1.838 4.504 1.318 1.34 3.158 2.046 5.322 2.05 2.67 0 4.95-1.087 6.424-3.06l2.38 2.318 5.093.02L68.312 9.55c-.192-.213-.38-.43-.558-.643zm-.383 4.67l4.808 4.688c-.608 1.106-1.77 2.405-3.88 2.405-.47 0-.92-.087-1.337-.255-1.137-.535-1.87-1.7-1.87-2.966 0-1.495.628-2.61 2.096-3.724l.185-.15zm-23.405-8.68c-4.34 0-8.365 3.73-8.365 9.36 0 6.034 4.13 9.543 8.79 9.543 4.13 0 6.848-2.522 7.765-5.63l-3.46-1.134c-.564 1.754-1.835 3.107-4.306 3.107-2.543 0-4.59-1.936-4.695-4.642H52.26c.037-.072.107-.658.107-1.352 0-5.632-3.106-9.25-8.402-9.25zM39.8 12.39c.142-1.9 1.624-3.95 4.2-3.95 2.825 0 4.167 1.866 4.237 3.95H39.8zM26.3 19.922c-2.577 0-4.8-2.01-4.8-5.594 0-3.583 2.223-5.52 4.73-5.52 2.61 0 3.776 1.754 4.164 3.327l3.67-1.39c-.705-2.852-3.246-5.85-7.87-5.85-4.942 0-8.79 3.95-8.79 9.433 0 5.41 3.848 9.47 8.896 9.47 4.518 0 7.095-3.036 7.906-5.813l-3.6-1.354c-.388 1.355-1.624 3.292-4.306 3.292zM144.6 14.164c0-5.636-3.108-9.26-8.408-9.26-4.347 0-8.375 3.734-8.375 9.37 0 6.038 4.134 9.552 8.8 9.552 4.132 0 6.854-2.525 7.773-5.636l-3.463-1.135c-.566 1.757-1.838 3.11-4.31 3.11-2.545 0-4.594-1.94-4.702-4.646h12.58c.035-.075.106-.66.106-1.356zm-12.577-1.757c.14-1.902 1.625-3.953 4.204-3.953 2.827 0 4.17 1.867 4.24 3.953h-8.444zm-9.4 5.088V9.223h3.57v-3.77h-3.57V0h-3.71v2.672c0 1.573-.813 2.78-2.65 2.78h-.884v3.77h3.18v8.968c0 3.33 1.978 5.306 5.158 5.306 1.485 0 2.26-.293 2.51-.402V19.58c-.178.037-.85.147-1.415.147-1.52 0-2.19-.66-2.19-2.232zm-9.01-5.93c0-3.55-2.014-6.66-7.314-6.66-4.242 0-6.927 2.744-7.245 5.817l3.746.88c.178-1.794 1.377-3.22 3.534-3.22 2.26 0 3.25 1.207 3.25 2.707 0 .622-.283 1.134-1.27 1.28l-4.418.695c-2.933.44-5.194 2.198-5.194 5.38 0 2.82 2.225 5.38 5.83 5.38 2.79 0 4.487-1.463 5.3-2.818 0 1.428.14 2.16.176 2.27h3.817c-.036-.183-.212-1.245-.212-2.855v-8.857zm-4.028 4.32c0 3.475-1.98 4.61-4.275 4.61-1.626 0-2.51-1.098-2.51-2.305 0-1.464 1.025-2.197 2.296-2.416l4.49-.694v.804zm-16.91 1.61V9.223h3.57v-3.77h-3.57V0h-3.71v2.672c0 1.573-.812 2.78-2.65 2.78h-.883v3.77h3.18v8.968c0 3.33 1.978 5.306 5.16 5.306 1.483 0 2.26-.293 2.508-.402V19.58c-.177.037-.85.147-1.414.147-1.52 0-2.19-.66-2.19-2.232z"
    fill="#1a1a1a"
    fill-rule="evenodd"
    />
</svg>